<svg width="22" height="13" viewBox="0 0 22 13" fill="none" xmlns="http://www.w3.org/2000/svg">
<path d="M12.4367 0.431548C12.6911 0.183916 13.0298 0.0470145 13.3811 0.0497318C13.7324 0.0524491 14.069 0.194573 14.3198 0.446113C14.5705 0.697653 14.7159 1.03893 14.7252 1.39794C14.7345 1.75695 14.607 2.10561 14.3695 2.37035L7.16193 11.5842C7.03799 11.7207 6.88841 11.8302 6.72212 11.9062C6.55584 11.9822 6.37626 12.0232 6.19414 12.0266C6.01202 12.0301 5.83108 11.9959 5.66216 11.9263C5.49324 11.8566 5.33979 11.7528 5.21099 11.6212L0.431207 6.73541C0.298098 6.60862 0.191335 6.45574 0.117286 6.28586C0.0432372 6.11599 0.00342047 5.93261 0.000210847 5.74666C-0.00299877 5.56072 0.0304645 5.37602 0.0986045 5.20358C0.166744 5.03114 0.268165 4.8745 0.396816 4.74299C0.525467 4.61149 0.678713 4.50782 0.847411 4.43817C1.01611 4.36852 1.1968 4.33431 1.37872 4.33759C1.56063 4.34087 1.74003 4.38157 1.90622 4.45726C2.07241 4.53296 2.22198 4.64209 2.34601 4.77815L6.12866 8.64281L12.4005 0.472171C12.4118 0.457915 12.4239 0.44435 12.4367 0.431548ZM10.7748 9.92242L12.4367 11.6212C12.5654 11.7526 12.7188 11.8561 12.8875 11.9256C13.0563 11.9951 13.237 12.0291 13.4189 12.0257C13.6008 12.0222 13.7802 11.9814 13.9463 11.9055C14.1124 11.8297 14.2619 11.7204 14.3858 11.5842L21.597 2.37035C21.7266 2.23962 21.829 2.08355 21.8982 1.91145C21.9674 1.73936 22.002 1.55477 21.9999 1.36871C21.9978 1.18265 21.959 0.998935 21.8859 0.828537C21.8127 0.658138 21.7068 0.504551 21.5743 0.376947C21.4418 0.249342 21.2855 0.150337 21.1148 0.0858442C20.944 0.0213513 20.7623 -0.00730719 20.5805 0.00158083C20.3986 0.0104689 20.2204 0.0567214 20.0565 0.137575C19.8925 0.218429 19.7462 0.332226 19.6262 0.472171L13.3525 8.64281L12.4764 7.74543L10.773 9.92242H10.7748Z" fill="#1889CD"/>
</svg>
