<svg width="100" height="17" viewBox="0 0 100 17" fill="none" xmlns="http://www.w3.org/2000/svg">
<path d="M16.7765 7.54215C16.9698 7.39781 17.1132 7.19646 17.1866 6.96631C17.26 6.73617 17.2596 6.48878 17.1856 6.25884C17.1117 6.02889 16.9677 5.82792 16.774 5.6841C16.5803 5.54029 16.3466 5.46084 16.1055 5.45689L11.4243 5.27964C11.4012 5.27805 11.3792 5.26982 11.3607 5.25595C11.3423 5.24207 11.3282 5.22315 11.3202 5.20145L9.70258 0.822396C9.62131 0.599607 9.47369 0.40723 9.27971 0.271312C9.08573 0.135394 8.85477 0.0625 8.61809 0.0625C8.38141 0.0625 8.15044 0.135394 7.95647 0.271312C7.76249 0.40723 7.61487 0.599607 7.53359 0.822396L5.92116 5.21708C5.91319 5.23878 5.89913 5.25771 5.88067 5.27159C5.86221 5.28546 5.84015 5.29369 5.81713 5.29528L1.13586 5.47253C0.894827 5.47648 0.661071 5.55593 0.467368 5.69974C0.273665 5.84356 0.129727 6.04453 0.0557368 6.27448C-0.0182533 6.50442 -0.0185853 6.75181 0.0547874 6.98195C0.12816 7.21209 0.271558 7.41345 0.464875 7.55779L4.13707 10.4511C4.15545 10.4656 4.16919 10.4852 4.17658 10.5074C4.18398 10.5296 4.18471 10.5536 4.17868 10.5762L2.91474 15.0647C2.84924 15.2933 2.85559 15.5365 2.93291 15.7614C3.01024 15.9862 3.15479 16.1817 3.3469 16.3212C3.53901 16.4608 3.76935 16.5377 4.0066 16.5414C4.24384 16.5451 4.47646 16.4755 4.67282 16.342L8.55307 13.7354C8.57219 13.7222 8.59486 13.7151 8.61809 13.7151C8.64132 13.7151 8.66399 13.7222 8.68311 13.7354L12.5634 16.342C12.7571 16.48 12.9889 16.5542 13.2265 16.5542C13.4642 16.5542 13.696 16.48 13.8897 16.342C14.0819 16.2037 14.2266 16.0092 14.3039 15.7851C14.3812 15.5611 14.3873 15.3185 14.3214 15.0908L13.0471 10.5866C13.0403 10.564 13.0407 10.5399 13.0482 10.5175C13.0556 10.4951 13.0698 10.4755 13.0887 10.4615L16.7765 7.54215Z" fill="#ECC63E"/>
<path d="M37.4679 7.54215C37.6612 7.39781 37.8046 7.19646 37.878 6.96631C37.9514 6.73617 37.951 6.48878 37.877 6.25884C37.8031 6.02889 37.6591 5.82792 37.4654 5.6841C37.2717 5.54029 37.038 5.46084 36.7969 5.45689L32.1157 5.27964C32.0926 5.27805 32.0706 5.26982 32.0521 5.25595C32.0337 5.24207 32.0196 5.22315 32.0116 5.20145L30.394 0.822396C30.3127 0.599607 30.1651 0.40723 29.9711 0.271312C29.7771 0.135394 29.5462 0.0625 29.3095 0.0625C29.0728 0.0625 28.8419 0.135394 28.6479 0.271312C28.4539 0.40723 28.3063 0.599607 28.225 0.822396L26.6126 5.21708C26.6046 5.23878 26.5905 5.25771 26.5721 5.27159C26.5536 5.28546 26.5316 5.29369 26.5085 5.29528L21.8273 5.47253C21.5862 5.47648 21.3525 5.55593 21.1588 5.69974C20.9651 5.84356 20.8211 6.04453 20.7471 6.27448C20.6732 6.50442 20.6728 6.75181 20.7462 6.98195C20.8196 7.21209 20.963 7.41345 21.1563 7.55779L24.8285 10.4511C24.8469 10.4656 24.8606 10.4852 24.868 10.5074C24.8754 10.5296 24.8761 10.5536 24.8701 10.5762L23.6061 15.0647C23.5406 15.2933 23.547 15.5365 23.6243 15.7614C23.7016 15.9862 23.8462 16.1817 24.0383 16.3212C24.2304 16.4608 24.4608 16.5377 24.698 16.5414C24.9352 16.5451 25.1679 16.4755 25.3642 16.342L29.2445 13.7354C29.2636 13.7222 29.2863 13.7151 29.3095 13.7151C29.3327 13.7151 29.3554 13.7222 29.3745 13.7354L33.2548 16.342C33.4485 16.48 33.6803 16.5542 33.9179 16.5542C34.1556 16.5542 34.3874 16.48 34.5811 16.342C34.7733 16.2037 34.918 16.0092 34.9953 15.7851C35.0726 15.5611 35.0787 15.3185 35.0128 15.0908L33.7385 10.5866C33.7317 10.564 33.7321 10.5399 33.7396 10.5175C33.747 10.4951 33.7612 10.4755 33.7801 10.4615L37.4679 7.54215Z" fill="#ECC63E"/>
<path d="M58.1554 7.54215C58.3487 7.39781 58.4921 7.19646 58.5655 6.96631C58.6389 6.73617 58.6385 6.48878 58.5645 6.25884C58.4906 6.02889 58.3466 5.82792 58.1529 5.6841C57.9592 5.54029 57.7255 5.46084 57.4844 5.45689L52.8032 5.27964C52.7801 5.27805 52.7581 5.26982 52.7396 5.25595C52.7212 5.24207 52.7071 5.22315 52.6991 5.20145L51.0815 0.822396C51.0002 0.599607 50.8526 0.40723 50.6586 0.271312C50.4646 0.135394 50.2337 0.0625 49.997 0.0625C49.7603 0.0625 49.5294 0.135394 49.3354 0.271312C49.1414 0.40723 48.9938 0.599607 48.9125 0.822396L47.3001 5.21708C47.2921 5.23878 47.278 5.25771 47.2596 5.27159C47.2411 5.28546 47.2191 5.29369 47.196 5.29528L42.5148 5.47253C42.2737 5.47648 42.04 5.55593 41.8463 5.69974C41.6526 5.84356 41.5086 6.04453 41.4346 6.27448C41.3607 6.50442 41.3603 6.75181 41.4337 6.98195C41.5071 7.21209 41.6505 7.41345 41.8438 7.55779L45.516 10.4511C45.5344 10.4656 45.5481 10.4852 45.5555 10.5074C45.5629 10.5296 45.5636 10.5536 45.5576 10.5762L44.2936 15.0647C44.2281 15.2933 44.2345 15.5365 44.3118 15.7614C44.3891 15.9862 44.5337 16.1817 44.7258 16.3212C44.9179 16.4608 45.1483 16.5377 45.3855 16.5414C45.6227 16.5451 45.8554 16.4755 46.0517 16.342L49.932 13.7354C49.9511 13.7222 49.9738 13.7151 49.997 13.7151C50.0202 13.7151 50.0429 13.7222 50.062 13.7354L53.9423 16.342C54.136 16.48 54.3678 16.5542 54.6054 16.5542C54.8431 16.5542 55.0749 16.48 55.2686 16.342C55.4608 16.2037 55.6055 16.0092 55.6828 15.7851C55.7601 15.5611 55.7662 15.3185 55.7003 15.0908L54.426 10.5866C54.4192 10.564 54.4196 10.5399 54.4271 10.5175C54.4345 10.4951 54.4487 10.4755 54.4676 10.4615L58.1554 7.54215Z" fill="#ECC63E"/>
<path d="M78.8468 7.54215C79.0401 7.39781 79.1835 7.19646 79.2569 6.96631C79.3303 6.73617 79.3299 6.48878 79.256 6.25884C79.182 6.02889 79.038 5.82792 78.8443 5.6841C78.6506 5.54029 78.4169 5.46084 78.1758 5.45689L73.4946 5.27964C73.4715 5.27805 73.4495 5.26982 73.431 5.25595C73.4126 5.24207 73.3985 5.22315 73.3905 5.20145L71.7729 0.822396C71.6916 0.599607 71.544 0.40723 71.35 0.271312C71.156 0.135394 70.9251 0.0625 70.6884 0.0625C70.4517 0.0625 70.2208 0.135394 70.0268 0.271312C69.8328 0.40723 69.6852 0.599607 69.6039 0.822396L67.9915 5.21708C67.9835 5.23878 67.9694 5.25771 67.951 5.27159C67.9325 5.28546 67.9105 5.29369 67.8874 5.29528L63.2062 5.47253C62.9651 5.47648 62.7314 5.55593 62.5377 5.69974C62.344 5.84356 62.2 6.04453 62.126 6.27448C62.0521 6.50442 62.0517 6.75181 62.1251 6.98195C62.1985 7.21209 62.3419 7.41345 62.5352 7.55779L66.2074 10.4511C66.2258 10.4656 66.2395 10.4852 66.2469 10.5074C66.2543 10.5296 66.255 10.5536 66.249 10.5762L64.9851 15.0647C64.9196 15.2933 64.9259 15.5365 65.0032 15.7614C65.0806 15.9862 65.2251 16.1817 65.4172 16.3212C65.6093 16.4608 65.8397 16.5377 66.0769 16.5414C66.3142 16.5451 66.5468 16.4755 66.7431 16.342L70.6234 13.7354C70.6425 13.7222 70.6652 13.7151 70.6884 13.7151C70.7116 13.7151 70.7343 13.7222 70.7534 13.7354L74.6337 16.342C74.8274 16.48 75.0592 16.5542 75.2969 16.5542C75.5345 16.5542 75.7663 16.48 75.96 16.342C76.1522 16.2037 76.2969 16.0092 76.3742 15.7851C76.4515 15.5611 76.4576 15.3185 76.3918 15.0908L75.1174 10.5866C75.1107 10.564 75.111 10.5399 75.1185 10.5175C75.1259 10.4951 75.1401 10.4755 75.159 10.4615L78.8468 7.54215Z" fill="#ECC63E"/>
<path d="M99.5343 7.54215C99.7276 7.39781 99.871 7.19646 99.9444 6.96631C100.018 6.73617 100.017 6.48878 99.9435 6.25884C99.8695 6.02889 99.7255 5.82792 99.5318 5.6841C99.3381 5.54029 99.1044 5.46084 98.8633 5.45689L94.1821 5.27964C94.159 5.27805 94.137 5.26982 94.1185 5.25595C94.1001 5.24207 94.086 5.22315 94.078 5.20145L92.4604 0.822396C92.3791 0.599607 92.2315 0.40723 92.0375 0.271312C91.8435 0.135394 91.6126 0.0625 91.3759 0.0625C91.1392 0.0625 90.9083 0.135394 90.7143 0.271312C90.5203 0.40723 90.3727 0.599607 90.2914 0.822396L88.679 5.21708C88.671 5.23878 88.6569 5.25771 88.6385 5.27159C88.62 5.28546 88.598 5.29369 88.5749 5.29528L83.8937 5.47253C83.6526 5.47648 83.4189 5.55593 83.2252 5.69974C83.0315 5.84356 82.8875 6.04453 82.8135 6.27448C82.7396 6.50442 82.7392 6.75181 82.8126 6.98195C82.886 7.21209 83.0294 7.41345 83.2227 7.55779L86.8949 10.4511C86.9133 10.4656 86.927 10.4852 86.9344 10.5074C86.9418 10.5296 86.9425 10.5536 86.9365 10.5762L85.6726 15.0647C85.6071 15.2933 85.6134 15.5365 85.6907 15.7614C85.7681 15.9862 85.9126 16.1817 86.1047 16.3212C86.2968 16.4608 86.5272 16.5377 86.7644 16.5414C87.0017 16.5451 87.2343 16.4755 87.4306 16.342L91.3109 13.7354C91.33 13.7222 91.3527 13.7151 91.3759 13.7151C91.3991 13.7151 91.4218 13.7222 91.4409 13.7354L95.3212 16.342C95.5149 16.48 95.7467 16.5542 95.9844 16.5542C96.222 16.5542 96.4538 16.48 96.6475 16.342C96.8397 16.2037 96.9844 16.0092 97.0617 15.7851C97.139 15.5611 97.1451 15.3185 97.0793 15.0908L95.8049 10.5866C95.7982 10.564 95.7985 10.5399 95.806 10.5175C95.8134 10.4951 95.8276 10.4755 95.8465 10.4615L99.5343 7.54215Z" fill="#ECC63E"/>
</svg>
