<svg width="30" height="31" viewBox="0 0 30 31" fill="none" xmlns="http://www.w3.org/2000/svg">
<path d="M21.1606 13.9596H16.0713V8.8588C16.0713 8.71114 15.9508 8.59033 15.8035 8.59033H14.1963C14.049 8.59033 13.9284 8.71114 13.9284 8.8588V13.9596H8.83915C8.69183 13.9596 8.57129 14.0804 8.57129 14.2281V15.8388C8.57129 15.9865 8.69183 16.1073 8.83915 16.1073H13.9284V21.2081C13.9284 21.3558 14.049 21.4766 14.1963 21.4766H15.8035C15.9508 21.4766 16.0713 21.3558 16.0713 21.2081V16.1073H21.1606C21.3079 16.1073 21.4285 15.9865 21.4285 15.8388V14.2281C21.4285 14.0804 21.3079 13.9596 21.1606 13.9596Z" fill="#1889CD"/>
<path d="M15 0C6.71652 0 0 6.7316 0 15.0337C0 23.3358 6.71652 30.0674 15 30.0674C23.2835 30.0674 30 23.3358 30 15.0337C30 6.7316 23.2835 0 15 0ZM15 27.517C8.12277 27.517 2.54464 21.9264 2.54464 15.0337C2.54464 8.14101 8.12277 2.55036 15 2.55036C21.8772 2.55036 27.4554 8.14101 27.4554 15.0337C27.4554 21.9264 21.8772 27.517 15 27.517Z" fill="#1889CD"/>
</svg>
